<svg xmlns="http://www.w3.org/2000/svg" viewBox="0 0 30 30"><path fill="#4e7ab5" d="M11 1H19V3H11zM9 26H21V28H9zM5 7H7V11H5zM23 7H25V11H23zM5 19H7V24H5zM23 19H25V24H23zM3 11H5V19H3zM25 11H27V19H25zM9 3H11V5H9zM19 3H21V5H19zM7 5H9V7H7zM21 5H23V7H21zM7 24H9V26H7zM21 24H23V26H21z"></path><path fill="#c2e8ff" d="M11 5H17V9H11zM17 5H19V7H17zM9 9H11V11H9z"></path><path fill="#e1f7ff" d="M7 15H9V17H7zM9 13H11V15H9zM9 7H11V9H9zM19 5H21V7H19zM13 9H19V11H13z"></path><path fill="#97c9ff" d="M19 17H21V19H19zM11 19H19V26H11zM21 17H23V22H21z"></path><path fill="#7496c4" d="M19 19H21V24H19zM9 19H11V24H9zM21 15H25V17H21z"></path><path fill="#589cdb" d="M19 11H21V17H19zM9 15H11V17H9zM9 24H11V26H9zM19 24H21V26H19zM21 22H23V24H21zM23 17H25V19H23zM11 17H19V19H11z"></path><path fill="#fff" d="M7 7H9V11H7zM9 5H11V7H9zM11 9H13V11H11zM17 7H19V9H17zM9 11H11V13H9zM11 3H19V5H11zM5 11H7V19H5z"></path><path fill="#c2e8ff" d="M9 17H11V19H9zM7 11H9V15H7zM7 17H9V24H7zM19 7H23V11H19zM11 11H19V17H11zM21 11H25V15H21z"></path></svg>