<svg width="402" height="289" viewBox="0 0 402 289" fill="none" xmlns="http://www.w3.org/2000/svg">
<path d="M450.359 169.16C444.048 155.697 434.015 144.321 421.446 136.377C408.876 128.433 394.296 124.253 379.427 124.33H348.855L354.332 93.0067C357.299 75.8769 354.502 58.247 346.381 42.8756C338.26 27.5043 325.273 15.2588 309.451 8.0552C293.629 0.851633 275.865 -0.903542 258.939 3.06432C242.013 7.03218 226.88 16.4992 215.908 29.984L196.133 54.3072H127.988C106.96 54.3322 86.774 62.5741 71.7375 77.2744C56.7011 91.9747 48.0048 111.969 47.5044 132.992C34.6854 138.941 23.6589 148.161 15.5338 159.724C7.40873 171.287 2.47156 184.786 1.21883 198.862C-0.0338938 212.939 2.44199 227.097 8.39748 239.913C14.353 252.73 23.5781 263.752 35.1451 271.871C35.0264 273.611 34.9671 275.391 34.9671 277.171C34.9944 288.758 37.5308 300.203 42.402 310.717C47.2733 321.23 54.3638 330.565 63.1859 338.078C68.8089 343.044 75.1237 347.168 81.9326 350.318L84.7209 351.564C94.2862 355.622 104.566 357.726 114.957 357.754H145.489L140.012 389.097C137.034 406.231 139.825 423.869 147.947 439.246C156.07 454.623 169.065 466.871 184.896 474.07C200.727 481.268 218.499 483.011 235.427 479.024C252.355 475.038 267.481 465.547 278.436 452.041L440.314 252.511C449.776 241.029 455.75 227.077 457.531 212.305C459.311 197.534 456.822 182.561 450.359 169.16V169.16Z" stroke="#F2F2F2" stroke-width="1.5"/>
<path d="M441.421 173.411C435.91 161.639 427.143 151.692 416.157 144.747C405.17 137.801 392.425 134.147 379.427 134.217H337.069L344.583 91.3056C347.188 76.3234 344.749 60.9005 337.649 47.453C330.549 34.0054 319.189 23.2928 305.348 16.9932C291.507 10.6936 275.968 9.16283 261.164 12.6408C246.361 16.1187 233.129 24.4089 223.541 36.2126L200.879 64.1941H127.989C109.263 64.2151 91.3106 71.6644 78.0714 84.9073C64.8323 98.1501 57.3879 116.105 57.3722 134.83C57.3722 136.412 57.3722 137.974 57.5107 139.537C44.8846 144.08 33.8142 152.126 25.596 162.733C17.3778 173.341 12.3519 186.07 11.1069 199.431C9.86194 212.791 12.4494 226.23 18.5663 238.174C24.6832 250.117 34.0764 260.07 45.6457 266.867C43.9026 278.646 45.1882 290.674 49.3815 301.818C53.5748 312.962 60.5375 322.855 69.6129 330.563C74.5456 334.923 80.0883 338.54 86.0657 341.3L88.498 342.388C96.8492 345.934 105.825 347.776 114.898 347.806H157.255L149.741 390.718C146.983 405.701 149.35 421.177 156.46 434.651C163.57 448.125 175.01 458.813 188.935 464.993C197.992 469.156 207.838 471.321 217.806 471.34C227.997 471.325 238.053 469.017 247.231 464.588C256.408 460.158 264.471 453.72 270.823 445.752L432.701 246.203C440.956 236.17 446.164 223.983 447.709 211.083C449.255 198.183 447.073 185.11 441.421 173.411V173.411Z" stroke="#F2F2F2" stroke-width="1.5"/>
<path d="M432.503 177.643C427.789 167.556 420.286 159.03 410.881 153.073C401.475 147.115 390.56 143.976 379.427 144.026H325.303L334.854 89.5259C337.041 76.7177 334.926 63.5459 328.839 52.0663C322.752 40.5866 313.036 31.4449 301.208 26.068C289.379 20.6911 276.103 19.3815 263.451 22.3435C250.8 25.3055 239.485 32.3726 231.273 42.4417L205.565 74.0816H127.988C119.013 74.0965 110.152 76.0974 102.041 79.9409C93.9307 83.7843 86.7709 89.3751 81.0758 96.3121C75.3806 103.249 71.2912 111.36 69.1008 120.064C66.9104 128.768 66.6733 137.849 68.4065 146.656C55.8995 149.396 44.578 156.018 36.0588 165.576C27.5396 175.134 22.2582 187.14 20.9688 199.879C19.6793 212.617 22.4478 225.438 28.8788 236.509C35.3099 247.581 45.0746 256.337 56.7788 261.528C53.8351 272.564 54.0862 284.208 57.5031 295.106C60.9199 306.005 67.3619 315.708 76.0792 323.088C80.3078 326.826 85.0573 329.93 90.1787 332.303L92.3144 333.252C99.4541 336.302 107.133 337.889 114.897 337.919H169.021L159.49 392.419C157.131 405.252 159.165 418.506 165.265 430.041C171.364 441.576 181.173 450.719 193.107 455.995C200.855 459.557 209.279 461.411 217.806 461.433C226.522 461.407 235.121 459.425 242.969 455.632C250.817 451.84 257.713 446.335 263.15 439.522L425.067 239.954C432.124 231.36 436.574 220.927 437.892 209.885C439.209 198.844 437.339 187.656 432.503 177.643Z" stroke="#F2F2F2" stroke-width="1.5"/>
<path d="M423.564 181.855C419.642 173.473 413.401 166.39 405.578 161.445C397.756 156.5 388.681 153.9 379.427 153.952H313.537L325.105 87.8646C326.972 77.1914 325.243 66.2005 320.189 56.6161C315.135 47.0318 307.042 39.3964 297.18 34.9078C287.319 30.4192 276.246 29.3314 265.699 31.8151C255.152 34.2988 245.729 40.2135 238.906 48.6311L210.292 83.9689H127.988C114.506 83.9846 101.58 89.3489 92.0486 98.8844C82.5168 108.42 77.1576 121.347 77.1471 134.83C77.1338 141.82 78.5749 148.736 81.3789 155.139C68.9247 155.14 56.9036 159.71 47.5946 167.983C38.2856 176.257 32.3357 187.658 30.8729 200.026C29.4101 212.394 32.536 224.869 39.6582 235.086C46.7803 245.303 57.4036 252.551 69.514 255.457C64.7273 265.518 63.4118 276.883 65.7735 287.771C68.1351 298.66 74.0406 308.458 82.5654 315.632C86.0802 318.747 90.0307 321.331 94.292 323.305L96.131 324.136C102.054 326.712 108.439 328.057 114.897 328.091H180.788L169.219 394.178C167.254 404.848 168.94 415.868 174.006 425.462C179.072 435.055 187.222 442.663 197.141 447.057C203.586 450.023 210.593 451.567 217.688 451.585C224.94 451.564 232.096 449.915 238.626 446.759C245.156 443.603 250.895 439.022 255.418 433.352L417.316 233.764C423.221 226.62 426.95 217.929 428.058 208.727C429.166 199.524 427.606 190.196 423.564 181.855V181.855Z" stroke="#F2F2F2" stroke-width="1.5"/>
<path d="M414.646 186.127C411.512 179.443 406.53 173.796 400.289 169.854C394.048 165.912 386.809 163.838 379.427 163.88H301.771L315.356 86.2038C316.837 77.6927 315.453 68.9308 311.421 61.2907C307.388 53.6506 300.935 47.5639 293.073 43.9843C285.21 40.4047 276.383 39.5344 267.973 41.5098C259.563 43.4851 252.045 48.1944 246.599 54.9L214.959 93.8567H127.949C119.686 93.8441 111.613 96.3312 104.79 100.991C97.9664 105.651 92.7122 112.266 89.7174 119.967C86.7226 127.668 86.1273 136.094 88.0096 144.14C89.8918 152.185 94.1637 159.473 100.264 165.046H81.4185C70.5516 165.046 60.1298 169.363 52.4457 177.047C44.7617 184.731 40.4448 195.153 40.4448 206.02C40.4448 216.887 44.7617 227.309 52.4457 234.993C60.1298 242.677 70.5516 246.994 81.4185 246.994H87.8256C83.5329 250.891 80.1248 255.663 77.8308 260.988C75.5367 266.313 74.4098 272.067 74.526 277.864C74.6421 283.661 75.9986 289.366 78.5042 294.595C81.0098 299.824 84.6062 304.455 89.0516 308.177C91.8571 310.682 95.0153 312.761 98.4249 314.347L99.9476 315.039C104.67 317.075 109.755 318.137 114.897 318.164H192.554L178.968 395.82C177.407 404.33 178.754 413.117 182.793 420.768C186.832 428.419 193.328 434.489 201.235 438C206.383 440.368 211.981 441.602 217.648 441.619C223.432 441.602 229.138 440.286 234.344 437.767C239.551 435.247 244.124 431.59 247.726 427.064L409.663 227.476C414.349 221.776 417.308 214.855 418.191 207.529C419.074 200.203 417.844 192.777 414.646 186.127V186.127Z" stroke="#F2F2F2" stroke-width="1.5"/>
<path d="M405.708 190.378C403.37 185.389 399.653 181.173 394.996 178.23C390.339 175.286 384.936 173.738 379.427 173.767H290.005L305.627 84.5229C306.756 78.1518 305.735 71.5862 302.724 65.8592C299.713 60.1321 294.883 55.5688 288.995 52.8873C283.106 50.2057 276.493 49.5583 270.196 51.0467C263.9 52.5352 258.277 56.0751 254.212 61.1093L219.724 103.744H127.988C119.744 103.744 111.837 107.019 106.007 112.849C100.177 118.679 96.9023 126.586 96.9023 134.83C96.9023 143.075 100.177 150.982 106.007 156.812C111.837 162.641 119.744 165.916 127.988 165.916H186.127H187.096C188.26 165.937 189.37 166.416 190.184 167.249C190.998 168.081 191.452 169.201 191.446 170.366C191.441 171.558 190.964 172.7 190.119 173.541C189.274 174.382 188.13 174.855 186.938 174.855H81.4185C73.1739 174.855 65.267 178.13 59.4372 183.96C53.6075 189.789 50.3323 197.696 50.3323 205.941C50.3323 214.186 53.6075 222.092 59.4372 227.922C65.267 233.752 73.1739 237.027 81.4185 237.027H133.703C134.296 237.027 134.882 237.144 135.429 237.37C135.976 237.597 136.473 237.929 136.892 238.348C137.31 238.766 137.642 239.263 137.869 239.81C138.096 240.357 138.212 240.944 138.212 241.536C138.212 242.128 138.096 242.714 137.869 243.261C137.642 243.808 137.31 244.305 136.892 244.724C136.473 245.143 135.976 245.475 135.429 245.701C134.882 245.928 134.296 246.045 133.703 246.045H115.491C109.113 245.986 102.873 247.904 97.6301 251.536C92.3869 255.168 88.3974 260.335 86.2102 266.327C84.023 272.318 83.7455 278.84 85.4158 284.996C87.086 291.151 90.6221 296.638 95.5378 300.702C97.6245 302.589 99.9846 304.149 102.538 305.33L103.784 305.903C107.292 307.429 111.072 308.23 114.897 308.256H204.32L188.717 397.521C187.549 403.871 188.552 410.43 191.566 416.141C194.579 421.852 199.427 426.382 205.328 429.002C209.174 430.769 213.356 431.686 217.589 431.692C221.908 431.683 226.169 430.702 230.058 428.823C233.947 426.944 237.363 424.214 240.053 420.835L401.99 221.227C405.489 216.976 407.698 211.812 408.356 206.346C409.015 200.88 408.096 195.339 405.708 190.378V190.378Z" stroke="#F2F2F2" stroke-width="1.5"/>
<path d="M378.675 183.655H282.035C281.477 183.655 280.926 183.532 280.42 183.296C279.914 183.06 279.466 182.716 279.108 182.288C278.75 181.86 278.49 181.358 278.347 180.819C278.203 180.279 278.18 179.715 278.278 179.166L295.126 82.8221C298.508 63.2054 273.71 51.9337 261.192 67.3383L226.547 110.092C225.647 111.201 224.51 112.094 223.22 112.706C221.93 113.319 220.52 113.635 219.092 113.631H180.906C175.284 113.631 169.892 115.865 165.916 119.84C161.941 123.816 159.707 129.208 159.707 134.83C159.707 140.452 161.941 145.844 165.916 149.82C169.892 153.796 175.284 156.029 180.906 156.029H186.186H186.621C190.429 156.087 194.058 157.655 196.709 160.388C199.361 163.121 200.818 166.795 200.76 170.603C200.703 174.411 199.135 178.039 196.401 180.691C193.668 183.343 189.994 184.8 186.186 184.742H80.6473C75.025 184.742 69.633 186.976 65.6575 190.951C61.682 194.927 59.4485 200.319 59.4485 205.941C59.4485 211.563 61.682 216.955 65.6575 220.931C69.633 224.906 75.025 227.14 80.6473 227.14H132.952C136.77 227.14 140.432 228.656 143.132 231.356C145.831 234.056 147.348 237.718 147.348 241.536C147.348 245.354 145.831 249.016 143.132 251.715C140.432 254.415 136.77 255.932 132.952 255.932H114.719C110.369 255.889 106.113 257.2 102.54 259.682C98.9675 262.165 96.2549 265.697 94.7779 269.789C93.3009 273.881 93.1325 278.331 94.2961 282.524C95.4596 286.716 97.8976 290.442 101.273 293.188C102.647 294.454 104.208 295.501 105.9 296.293C106.225 296.418 106.542 296.563 106.849 296.728C109.151 297.739 111.632 298.277 114.146 298.31H210.786C211.344 298.31 211.896 298.432 212.401 298.668C212.907 298.904 213.355 299.249 213.713 299.677C214.071 300.105 214.331 300.606 214.475 301.145C214.618 301.685 214.642 302.249 214.543 302.799L197.656 399.201C194.254 418.739 219.052 430.011 231.57 414.606L393.526 214.978C395.816 212.165 397.263 208.761 397.698 205.16C398.133 201.558 397.539 197.908 395.985 194.63C394.431 191.352 391.981 188.582 388.917 186.639C385.854 184.697 382.303 183.662 378.675 183.655V183.655Z" stroke="#F2F2F2" stroke-width="1.5"/>
<path d="M124.35 153.122C127.972 153.122 131.514 152.048 134.525 150.035C137.537 148.022 139.884 145.161 141.269 141.814C142.655 138.466 143.016 134.784 142.308 131.231C141.6 127.678 139.854 124.416 137.291 121.855C134.728 119.295 131.464 117.553 127.91 116.848C124.357 116.144 120.674 116.51 117.329 117.899C113.983 119.288 111.124 121.638 109.115 124.652C107.105 127.666 106.034 131.208 106.038 134.83C106.036 137.235 106.508 139.616 107.427 141.838C108.347 144.06 109.696 146.078 111.397 147.777C113.098 149.477 115.118 150.824 117.341 151.741C119.563 152.658 121.945 153.127 124.35 153.122V153.122Z" stroke="#F2F2F2" stroke-width="1.5"/>
</svg>
