<svg width="40" height="40" viewBox="0 0 40 40" fill="none" xmlns="http://www.w3.org/2000/svg">
<path d="M0 13.3333H40V31.9999C40 36.4182 36.4183 39.9999 32 39.9999H8C3.58172 39.9999 0 36.4182 0 31.9999V13.3333Z" fill="#F0F0F0"/>
<path fill-rule="evenodd" clip-rule="evenodd" d="M11.5 29.5C11.5 28.1193 10.3807 27 9 27C7.61929 27 6.5 28.1193 6.5 29.5C6.5 30.8807 7.61929 32 9 32C10.3807 32 11.5 30.8807 11.5 29.5ZM19 29.5C19 28.1193 17.8807 27 16.5 27C15.1193 27 14 28.1193 14 29.5C14 30.8807 15.1193 32 16.5 32C17.8807 32 19 30.8807 19 29.5ZM21.5 29.5C21.5 28.1193 22.6193 27 24 27C25.3807 27 26.5 28.1193 26.5 29.5C26.5 30.8807 25.3807 32 24 32C22.6193 32 21.5 30.8807 21.5 29.5ZM34 29.5C34 28.1193 32.8807 27 31.5 27C30.1193 27 29 28.1193 29 29.5C29 30.8807 30.1193 32 31.5 32C32.8807 32 34 30.8807 34 29.5Z" fill="#DADADA"/>
<path fill-rule="evenodd" clip-rule="evenodd" d="M11.5 22C11.5 20.6193 10.3807 19.5 9 19.5C7.61929 19.5 6.5 20.6193 6.5 22C6.5 23.3807 7.61929 24.5 9 24.5C10.3807 24.5 11.5 23.3807 11.5 22ZM19 22C19 20.6193 17.8807 19.5 16.5 19.5C15.1193 19.5 14 20.6193 14 22C14 23.3807 15.1193 24.5 16.5 24.5C17.8807 24.5 19 23.3807 19 22ZM21.5 22C21.5 20.6193 22.6193 19.5 24 19.5C25.3807 19.5 26.5 20.6193 26.5 22C26.5 23.3807 25.3807 24.5 24 24.5C22.6193 24.5 21.5 23.3807 21.5 22ZM34 22C34 20.6193 32.8807 19.5 31.5 19.5C30.1193 19.5 29 20.6193 29 22C29 23.3807 30.1193 24.5 31.5 24.5C32.8807 24.5 34 23.3807 34 22Z" fill="#DADADA"/>
<path fill-rule="evenodd" clip-rule="evenodd" d="M9.33334 0H8C3.58172 0 0 3.58172 0 8V13.3333H40V8C40 3.58172 36.4183 0 32 0H30.6667V2.99992C30.6667 4.10449 29.7712 4.99992 28.6667 4.99992C27.5621 4.99992 26.6667 4.10449 26.6667 2.99992V0H13.3333V2.99992C13.3333 4.10449 12.4379 4.99992 11.3333 4.99992C10.2288 4.99992 9.33334 4.10449 9.33334 2.99992V0Z" fill="#C05351"/>
</svg>
