<svg width="214" height="86" viewBox="0 0 214 86" fill="none" xmlns="http://www.w3.org/2000/svg">
<g clip-path="url(#clip0)">
<path d="M187.05 45.7642H184.362V48.4517H187.05V45.7642Z" fill="#6C7684" fill-opacity="0.2"/>
<path d="M189.737 45.7642H187.05V48.4517H189.737V45.7642Z" fill="#222034"/>
<path d="M192.425 45.7642H189.737V48.4517H192.425V45.7642Z" fill="#222034"/>
<path d="M195.112 45.7642H192.425V48.4517H195.112V45.7642Z" fill="#222034"/>
<path d="M197.8 45.7642H195.112V48.4517H197.8V45.7642Z" fill="#222034"/>
<path d="M200.487 45.7642H197.8V48.4517H200.487V45.7642Z" fill="#222034"/>
<path d="M203.175 45.7642H200.487V48.4517H203.175V45.7642Z" fill="#222034"/>
<path d="M205.862 45.7642H203.175V48.4517H205.862V45.7642Z" fill="#222034"/>
<path d="M208.55 45.7642H205.862V48.4517H208.55V45.7642Z" fill="#222034"/>
<path d="M211.237 45.7642H208.55V48.4517H211.237V45.7642Z" fill="#6C7684" fill-opacity="0.2"/>
<path d="M184.362 48.4517H181.675V51.1392H184.362V48.4517Z" fill="#6C7684" fill-opacity="0.2"/>
<path d="M187.05 48.4517H184.362V51.1392H187.05V48.4517Z" fill="#222034"/>
<path d="M189.737 48.4517H187.05V51.1392H189.737V48.4517Z" fill="white"/>
<path d="M192.425 48.4517H189.737V51.1392H192.425V48.4517Z" fill="white"/>
<path d="M195.112 48.4517H192.425V51.1392H195.112V48.4517Z" fill="white"/>
<path d="M197.8 48.4517H195.112V51.1392H197.8V48.4517Z" fill="white"/>
<path d="M200.487 48.4517H197.8V51.1392H200.487V48.4517Z" fill="white"/>
<path d="M203.175 48.4517H200.487V51.1392H203.175V48.4517Z" fill="white"/>
<path d="M205.862 48.4517H203.175V51.1392H205.862V48.4517Z" fill="white"/>
<path d="M208.55 48.4517H205.862V51.1392H208.55V48.4517Z" fill="white"/>
<path d="M211.237 48.4517H208.55V51.1392H211.237V48.4517Z" fill="#222034"/>
<path d="M213.925 48.4517H211.237V51.1392H213.925V48.4517Z" fill="#6C7684" fill-opacity="0.2"/>
<path d="M184.362 51.1392H181.675V53.8267H184.362V51.1392Z" fill="#222034"/>
<path d="M187.05 51.1392H184.362V53.8267H187.05V51.1392Z" fill="white"/>
<path d="M189.737 51.1392H187.05V53.8267H189.737V51.1392Z" fill="white"/>
<path d="M192.425 51.1392H189.737V53.8267H192.425V51.1392Z" fill="white"/>
<path d="M195.112 51.1392H192.425V53.8267H195.112V51.1392Z" fill="white"/>
<path d="M197.8 51.1392H195.112V53.8267H197.8V51.1392Z" fill="white"/>
<path d="M200.487 51.1392H197.8V53.8267H200.487V51.1392Z" fill="white"/>
<path d="M203.175 51.1392H200.487V53.8267H203.175V51.1392Z" fill="white"/>
<path d="M205.862 51.1392H203.175V53.8267H205.862V51.1392Z" fill="white"/>
<path d="M208.55 51.1392H205.862V53.8267H208.55V51.1392Z" fill="white"/>
<path d="M211.237 51.1392H208.55V53.8267H211.237V51.1392Z" fill="white"/>
<path d="M213.925 51.1392H211.237V53.8267H213.925V51.1392Z" fill="#222034"/>
<path d="M184.362 53.8267H181.675V56.5142H184.362V53.8267Z" fill="#222034"/>
<path d="M187.05 53.8267H184.362V56.5142H187.05V53.8267Z" fill="white"/>
<path d="M189.737 53.8267H187.05V56.5142H189.737V53.8267Z" fill="white"/>
<path d="M192.425 53.8267H189.737V56.5142H192.425V53.8267Z" fill="white"/>
<path d="M195.112 53.8267H192.425V56.5142H195.112V53.8267Z" fill="#222034"/>
<path d="M197.8 53.8267H195.112V56.5142H197.8V53.8267Z" fill="white"/>
<path d="M200.487 53.8267H197.8V56.5142H200.487V53.8267Z" fill="white"/>
<path d="M203.175 53.8267H200.487V56.5142H203.175V53.8267Z" fill="#222034"/>
<path d="M205.862 53.8267H203.175V56.5142H205.862V53.8267Z" fill="white"/>
<path d="M208.55 53.8267H205.862V56.5142H208.55V53.8267Z" fill="white"/>
<path d="M211.237 53.8267H208.55V56.5142H211.237V53.8267Z" fill="white"/>
<path d="M213.925 53.8267H211.237V56.5142H213.925V53.8267Z" fill="#222034"/>
<path d="M184.362 56.5142H181.675V59.2017H184.362V56.5142Z" fill="#222034"/>
<path d="M187.05 56.5142H184.362V59.2017H187.05V56.5142Z" fill="white"/>
<path d="M189.737 56.5142H187.05V59.2017H189.737V56.5142Z" fill="white"/>
<path d="M192.425 56.5142H189.737V59.2017H192.425V56.5142Z" fill="white"/>
<path d="M195.112 56.5142H192.425V59.2017H195.112V56.5142Z" fill="#222034"/>
<path d="M197.8 56.5142H195.112V59.2017H197.8V56.5142Z" fill="white"/>
<path d="M200.487 56.5142H197.8V59.2017H200.487V56.5142Z" fill="white"/>
<path d="M203.175 56.5142H200.487V59.2017H203.175V56.5142Z" fill="#222034"/>
<path d="M205.862 56.5142H203.175V59.2017H205.862V56.5142Z" fill="white"/>
<path d="M208.55 56.5142H205.862V59.2017H208.55V56.5142Z" fill="white"/>
<path d="M211.237 56.5142H208.55V59.2017H211.237V56.5142Z" fill="white"/>
<path d="M213.925 56.5142H211.237V59.2017H213.925V56.5142Z" fill="#222034"/>
<path d="M184.362 59.2017H181.675V61.8892H184.362V59.2017Z" fill="#222034"/>
<path d="M187.05 59.2017H184.362V61.8892H187.05V59.2017Z" fill="white"/>
<path d="M189.737 59.2017H187.05V61.8892H189.737V59.2017Z" fill="white"/>
<path d="M192.425 59.2017H189.737V61.8892H192.425V59.2017Z" fill="white"/>
<path d="M195.112 59.2017H192.425V61.8892H195.112V59.2017Z" fill="#EEEEF0"/>
<path d="M197.8 59.2017H195.112V61.8892H197.8V59.2017Z" fill="white"/>
<path d="M200.487 59.2017H197.8V61.8892H200.487V59.2017Z" fill="white"/>
<path d="M203.175 59.2017H200.487V61.8892H203.175V59.2017Z" fill="#EEEEF0"/>
<path d="M205.862 59.2017H203.175V61.8892H205.862V59.2017Z" fill="white"/>
<path d="M208.55 59.2017H205.862V61.8892H208.55V59.2017Z" fill="white"/>
<path d="M211.237 59.2017H208.55V61.8892H211.237V59.2017Z" fill="white"/>
<path d="M213.925 59.2017H211.237V61.8892H213.925V59.2017Z" fill="#222034"/>
<path d="M184.362 61.8892H181.675V64.5767H184.362V61.8892Z" fill="#222034"/>
<path d="M187.05 61.8892H184.362V64.5767H187.05V61.8892Z" fill="#F3A2C4"/>
<path d="M189.737 61.8892H187.05V64.5767H189.737V61.8892Z" fill="white"/>
<path d="M192.425 61.8892H189.737V64.5767H192.425V61.8892Z" fill="white"/>
<path d="M195.112 61.8892H192.425V64.5767H195.112V61.8892Z" fill="white"/>
<path d="M197.8 61.8892H195.112V64.5767H197.8V61.8892Z" fill="white"/>
<path d="M200.487 61.8892H197.8V64.5767H200.487V61.8892Z" fill="white"/>
<path d="M203.175 61.8892H200.487V64.5767H203.175V61.8892Z" fill="white"/>
<path d="M205.862 61.8892H203.175V64.5767H205.862V61.8892Z" fill="white"/>
<path d="M208.55 61.8892H205.862V64.5767H208.55V61.8892Z" fill="white"/>
<path d="M211.237 61.8892H208.55V64.5767H211.237V61.8892Z" fill="#F3A2C4"/>
<path d="M213.925 61.8892H211.237V64.5767H213.925V61.8892Z" fill="#222034"/>
<path d="M184.362 64.5767H181.675V67.2642H184.362V64.5767Z" fill="#222034"/>
<path d="M187.05 64.5767H184.362V67.2642H187.05V64.5767Z" fill="white"/>
<path d="M189.737 64.5767H187.05V67.2642H189.737V64.5767Z" fill="white"/>
<path d="M192.425 61.8892H189.737V64.5767H192.425V61.8892Z" fill="#222034"/>
<path d="M195.112 64.5767H192.425V67.2642H195.112V64.5767Z" fill="white"/>
<path d="M197.8 64.5767H195.112V67.2642H197.8V64.5767Z" fill="white"/>
<path d="M200.487 64.5767H197.8V67.2642H200.487V64.5767Z" fill="white"/>
<path d="M203.175 64.5767H200.487V67.2642H203.175V64.5767Z" fill="white"/>
<path d="M205.862 61.8892H203.175V64.5767H205.862V61.8892Z" fill="#222034"/>
<path d="M208.55 64.5767H205.862V67.2642H208.55V64.5767Z" fill="white"/>
<path d="M211.237 64.5767H208.55V67.2642H211.237V64.5767Z" fill="white"/>
<path d="M213.925 64.5767H211.237V67.2642H213.925V64.5767Z" fill="#222034"/>
<path d="M184.362 67.2646H181.675V69.9521H184.362V67.2646Z" fill="#222034"/>
<path d="M187.05 67.2646H184.362V69.9521H187.05V67.2646Z" fill="white"/>
<path d="M189.737 67.2646H187.05V69.9521H189.737V67.2646Z" fill="white"/>
<path d="M208.55 67.2646H188.393V69.9521H208.55V67.2646Z" fill="white"/>
<path d="M192.425 64.5767H189.737V67.2642H192.425V64.5767Z" fill="#EEEEF0"/>
<path d="M195.112 64.5767H192.425V67.2642H195.112V64.5767Z" fill="#222034"/>
<path d="M197.8 64.5767H195.112V67.2642H197.8V64.5767Z" fill="#222034"/>
<path d="M200.487 64.5767H197.8V67.2642H200.487V64.5767Z" fill="#222034"/>
<path d="M203.175 64.5767H200.487V67.2642H203.175V64.5767Z" fill="#222034"/>
<path d="M205.862 64.5767H203.175V67.2642H205.862V64.5767Z" fill="#EEEEF0"/>
<path d="M211.237 67.2646H208.55V69.9521H211.237V67.2646Z" fill="white"/>
<path d="M213.925 67.2646H211.237V69.9521H213.925V67.2646Z" fill="#222034"/>
<path d="M184.362 69.9517H181.675V72.6392H184.362V69.9517Z" fill="#222034"/>
<path d="M187.05 69.9517H184.362V72.6392H187.05V69.9517Z" fill="#9BADB7"/>
<path d="M189.737 69.9517H187.05V72.6392H189.737V69.9517Z" fill="white"/>
<path d="M192.425 69.9517H189.737V72.6392H192.425V69.9517Z" fill="white"/>
<path d="M195.112 69.9517H192.425V72.6392H195.112V69.9517Z" fill="white"/>
<path d="M197.8 69.9517H195.112V72.6392H197.8V69.9517Z" fill="white"/>
<path d="M200.487 69.9517H197.8V72.6392H200.487V69.9517Z" fill="white"/>
<path d="M203.175 69.9517H200.487V72.6392H203.175V69.9517Z" fill="white"/>
<path d="M205.862 69.9517H203.175V72.6392H205.862V69.9517Z" fill="white"/>
<path d="M208.55 69.9517H205.862V72.6392H208.55V69.9517Z" fill="white"/>
<path d="M211.237 69.9517H208.55V72.6392H211.237V69.9517Z" fill="#9BADB7"/>
<path d="M213.925 69.9517H211.237V72.6392H213.925V69.9517Z" fill="#222034"/>
<path d="M184.362 72.6396H181.675V75.3272H184.362V72.6396Z" fill="#6C7684" fill-opacity="0.2"/>
<path d="M187.05 72.6396H184.362V75.3272H187.05V72.6396Z" fill="#222034"/>
<path d="M189.737 72.6396H187.05V75.3272H189.737V72.6396Z" fill="#9BADB7"/>
<path d="M192.425 72.6396H189.737V75.3272H192.425V72.6396Z" fill="#9BADB7"/>
<path d="M195.112 72.6396H192.425V75.3272H195.112V72.6396Z" fill="#9BADB7"/>
<path d="M197.8 72.6396H195.112V75.3272H197.8V72.6396Z" fill="#9BADB7"/>
<path d="M200.487 72.6396H197.8V75.3272H200.487V72.6396Z" fill="#9BADB7"/>
<path d="M203.175 72.6396H200.487V75.3272H203.175V72.6396Z" fill="#9BADB7"/>
<path d="M205.862 72.6396H203.175V75.3272H205.862V72.6396Z" fill="#9BADB7"/>
<path d="M208.55 72.6396H205.862V75.3272H208.55V72.6396Z" fill="#9BADB7"/>
<path d="M211.237 72.6396H208.55V75.3272H211.237V72.6396Z" fill="#222034"/>
<path d="M213.925 72.6396H211.237V75.3272H213.925V72.6396Z" fill="#6C7684" fill-opacity="0.2"/>
<path d="M187.05 75.3271H184.362V78.0146H187.05V75.3271Z" fill="#6C7684" fill-opacity="0.2"/>
<path d="M189.737 75.3271H187.05V78.0146H189.737V75.3271Z" fill="#222034"/>
<path d="M192.425 75.3271H189.737V78.0146H192.425V75.3271Z" fill="#222034"/>
<path d="M195.112 75.3271H192.425V78.0146H195.112V75.3271Z" fill="#222034"/>
<path d="M197.8 75.3271H195.112V78.0146H197.8V75.3271Z" fill="#222034"/>
<path d="M200.487 75.3271H197.8V78.0146H200.487V75.3271Z" fill="#222034"/>
<path d="M203.175 75.3271H200.487V78.0146H203.175V75.3271Z" fill="#222034"/>
<path d="M205.862 75.3271H203.175V78.0146H205.862V75.3271Z" fill="#222034"/>
<path d="M208.55 75.3271H205.862V78.0146H208.55V75.3271Z" fill="#222034"/>
<path d="M211.237 75.3271H208.55V78.0146H211.237V75.3271Z" fill="#6C7684" fill-opacity="0.2"/>
</g>
<path d="M204.25 77.3999H201.025V85.9999H204.25V77.3999Z" fill="#222034"/>
<path d="M206.4 82.7749H199.95V85.9999H206.4V82.7749Z" fill="#222034"/>
<path d="M194.575 77.3999H191.35V85.9999H194.575V77.3999Z" fill="#222034"/>
<path d="M195.65 82.7749H189.2V85.9999H195.65V82.7749Z" fill="#222034"/>
<path d="M31.1529 48.856V45.606H2.72588V48.856H0V82.7498H2.72588V85.9998H31.1529V82.7498H33.8787V48.856H31.1529ZM19.0811 60.9278V64.1779V65.1065V67.4279V70.678V71.6066H14.7976V59.9992H19.0811V60.9278Z" fill="#070100"/>
<path d="M29.2058 83.6781H4.67293V80.428H1.94705V54.4273H4.67293V51.1772H12.8506H29.2058V54.4273H31.9317V64.1776H21.0282V57.6774H12.8506V77.1779H21.0282V70.6777H29.2058H31.9317V80.428H29.2058V83.6781Z" fill="#EA7810"/>
<path d="M29.2058 80.4281H4.67293V77.178H1.94705V51.1773H4.67293V47.9272H12.8506H29.2058V51.1773H31.9317V60.9276H21.0282V54.4274H12.8506V73.9279H21.0282V67.4277H29.2058H31.9317V77.178H29.2058V80.4281Z" fill="#FEE006"/>
<path d="M29.1876 47.9272H4.65472V51.1773H29.1876V47.9272Z" fill="white"/>
<path d="M51.2824 85.9994V72.999H55.5659V85.9994H70.3635V45.6055H55.5659V58.6058H51.2824V45.6055H36.4848V85.9994H51.2824Z" fill="#070100"/>
<path d="M49.3354 83.6776H38.4319V51.1768H49.3354V64.1771H57.513V51.1768H68.4165V83.6776H57.513V70.6773H49.3354V83.6776Z" fill="#EA7810"/>
<path d="M49.3354 80.4276H38.4319V47.9268H49.3354V60.9271H57.513V47.9268H68.4165V80.4276H57.513V67.4273H49.3354V80.4276Z" fill="#FEE006"/>
<path d="M49.3172 47.9268H38.4137V51.1768H49.3172V47.9268Z" fill="white"/>
<path d="M68.3982 47.9268H57.4947V51.1768H68.3982V47.9268Z" fill="white"/>
<path d="M87.7672 85.9994V72.999H92.0507V85.9994H106.848V48.8556H104.122V45.6055H75.6955V48.8556H72.9696V85.9994H87.7672Z" fill="#070100"/>
<path d="M85.8203 83.6776H74.9168V54.4268H77.6427V51.1768H93.998H102.176V54.4268H104.901V83.6776H93.998V70.6773H85.8203V83.6776ZM85.8203 64.1771H93.998V57.6769H85.8203V64.1771Z" fill="#EA7810"/>
<path d="M85.8203 80.4276H74.9168V51.1768H77.6427V47.9268H93.998H102.176V51.1768H104.901V80.4276H93.998V67.4273H85.8203V80.4276ZM85.8203 60.9271H93.998V54.4269H85.8203V60.9271Z" fill="#FEE006"/>
<path d="M102.157 47.9268H77.6245V51.1768H102.157V47.9268Z" fill="white"/>
<path d="M140.727 85.9994V71.6061H132.518V59.9987H140.727V45.6055H109.454V59.9987H117.663V71.6061H109.454V85.9994H140.727Z" fill="#070100"/>
<path d="M111.409 51.1768H138.773V57.6769H130.563V77.1774H138.773V83.6776H111.409V77.1774H119.618V57.6769H111.409V51.1768Z" fill="#EA7810"/>
<path d="M111.409 47.9268H138.773V54.4269H130.563V73.9274H138.773V80.4276H111.409V73.9274H119.618V54.4269H111.409V47.9268Z" fill="#FEE006"/>
<path d="M138.754 47.9268H111.391V51.1768H138.754V47.9268Z" fill="white"/>
<path d="M162.414 45.6055V52.1056H160.857V48.8556H158.131V45.6055H143.333V85.9994H158.131V72.999H159.688V76.2491H162.414V85.9994H177.212V45.6055H162.414Z" fill="#070100"/>
<path d="M156.184 83.6776H145.28V51.1768H156.184V54.4268H158.91V57.6769H161.635V60.927H164.361V51.1768H175.265V83.6776H164.361V73.9273H161.635V70.6773H158.91V67.4272H156.184V83.6776Z" fill="#EA7810"/>
<path d="M156.184 80.4276H145.28V47.9268H156.184V51.1768H158.91V54.4269H161.635V57.677H164.361V47.9268H175.265V80.4276H164.361V70.6773H161.635V67.4273H158.91V64.1772H156.184V80.4276Z" fill="#FEE006"/>
<path d="M175.265 47.9268H164.361V51.1072H175.265V47.9268Z" fill="white"/>
<path d="M156.184 47.9268H145.28V51.1072H156.184V47.9268Z" fill="white"/>
<path d="M31.1529 0H0V40.3939H14.7976V27.3936H31.1529V24.1435H33.8787V3.25008H31.1529V0Z" fill="#070100"/>
<path d="M12.8505 38.0726H1.94699V5.57178H12.8505H21.0281H29.2057V8.82186H31.9316V21.8222H29.2057V25.0723H12.8505V38.0726ZM12.8505 18.5721H21.0281V12.0719H12.8505V18.5721Z" fill="#EA7810"/>
<path d="M12.8505 34.8226H1.94699V2.32178H12.8505H21.0281H29.2057V5.57186H31.9316V18.5722H29.2057V21.8223H12.8505V34.8226ZM12.8505 15.3221H21.0281V8.82194H12.8505V15.3221Z" fill="#FEE006"/>
<path d="M29.2057 2.32178H1.94699V5.50221H29.2057V2.32178Z" fill="white"/>
<path d="M69.0605 40.3939V26.0007H60.8514V14.3932H69.0605V0H37.7878V14.3932H45.9969V26.0007H37.7878V40.3939H69.0605Z" fill="#070100"/>
<path d="M39.7423 5.57178H67.1059V12.0719H58.8968V31.5724H67.1059V38.0726H39.7423V31.5724H47.9514V12.0719H39.7423V5.57178Z" fill="#EA7810"/>
<path d="M39.7423 2.32178H67.1059V8.82194H58.8968V28.3224H67.1059V34.8226H39.7423V28.3224H47.9514V8.82194H39.7423V2.32178Z" fill="#FEE006"/>
<path d="M67.0877 2.32178H39.7241V5.57186H67.0877V2.32178Z" fill="white"/>
<path d="M90.7477 37.1438H93.4736V40.3939H105.545V22.7506H102.819V17.6433H105.545V0H93.4736V3.25008H90.7477V6.50016H86.4642V3.25008H83.7383V0H71.6666V17.6433H74.3925V22.7506H71.6666V40.3939H83.7383V37.1438H86.4642V33.8937H90.7477V37.1438Z" fill="#070100"/>
<path d="M73.6138 28.3224H76.3396V25.0723H79.0655V18.5721H76.3396V15.322H73.6138V5.57178H81.7914V8.82186H84.5173V12.0719H87.2432V15.322H89.969V12.0719H92.6949V8.82186H95.4208V5.57178H103.598V15.322H100.873V18.5721H98.1467V25.0723H100.873V28.3224H103.598V38.0726H95.4208V34.8225H92.6949V31.5724H89.969V28.3224H87.2432V31.5724H84.5173V34.8225H81.7914V38.0726H73.6138V28.3224Z" fill="#EA7810"/>
<path d="M73.6138 25.0724H76.3396V21.8223H79.0655V15.3221H76.3396V12.072H73.6138V2.32178H81.7914V5.57186H84.5173V8.82194H87.2432V12.072H89.969V8.82194H92.6949V5.57186H95.4208V2.32178H103.598V12.072H100.873V15.3221H98.1467V21.8223H100.873V25.0724H103.598V34.8226H95.4208V31.5725H92.6949V28.3224H89.969V25.0724H87.2432V28.3224H84.5173V31.5725H81.7914V34.8226H73.6138V25.0724Z" fill="#FEE006"/>
<path d="M81.7914 2.32178H73.6138V5.57186H81.7914V2.32178Z" fill="white"/>
<path d="M103.598 2.32178H95.4206V5.57186H103.598V2.32178Z" fill="white"/>
<path d="M110.877 37.1438V40.3939H142.03V26.0007H131.127V14.3932H142.03V0H110.877V3.25008H108.151V37.1438H110.877Z" fill="#070100"/>
<path d="M112.824 34.8225H110.099V8.82186H112.824V5.57178H140.083V12.0719H121.002V18.5721H129.18V25.0723H121.002V31.5724H140.083V38.0726H112.824V34.8225Z" fill="#EA7810"/>
<path d="M112.824 31.5725H110.099V5.57186H112.824V2.32178H140.083V8.82194H121.002V15.3221H129.18V21.8223H121.002V28.3224H140.083V34.8226H112.824V31.5725Z" fill="#FEE006"/>
<path d="M140.065 2.32178H112.806V5.57186H140.065V2.32178Z" fill="white"/>
<path d="M177.212 40.3939V26.0007H158.131V0H143.333V40.3939H177.212Z" fill="#070100"/>
<path d="M145.28 5.57178H156.184V31.5724H175.265V38.0726H145.28V5.57178Z" fill="#EA7810"/>
<path d="M145.28 2.32178H156.184V28.3224H175.265V34.8226H145.28V2.32178Z" fill="#FEE006"/>
<path d="M156.184 2.32178H145.28V5.50221H156.184V2.32178Z" fill="white"/>
<path d="M210.971 40.3939V37.1438H213.697V16.2504H210.971V14.3932H213.697V0H182.544V3.25008H179.818V24.1435H182.544V26.0007H179.818V40.3939H210.971Z" fill="#070100"/>
<path d="M181.765 31.5724H200.846V25.0723H184.491V21.8222H181.765V8.82186H184.491V5.57178H211.75V12.0719H192.668V18.5721H200.846H209.024V21.8222H211.75V34.8225H209.024V38.0726H181.765V31.5724Z" fill="#EA7810"/>
<path d="M181.765 28.3224H200.846V21.8223H184.491V18.5722H181.765V5.57186H184.491V2.32178H211.75V8.82194H192.668V15.3221H200.846H209.024V18.5722H211.75V31.5725H209.024V34.8226H181.765V28.3224Z" fill="#FEE006"/>
<path d="M211.75 2.32178H184.491V5.57186H211.75V2.32178Z" fill="white"/>
<defs>
<clipPath id="clip0">
<rect width="32.25" height="32.25" fill="white" transform="translate(181.675 45.7642)"/>
</clipPath>
</defs>
</svg>
