<svg width="125" height="130" viewBox="0 0 125 130" fill="none" xmlns="http://www.w3.org/2000/svg">
<g filter="url(#filter0_d)">
<path d="M36.1469 39.136C38.667 39.136 40.7011 37.1019 40.7011 34.5818C40.7011 32.0617 38.667 30.0276 36.1469 30.0276C33.6267 30.0276 31.5926 32.0617 31.5926 34.5818C31.6106 37.0839 33.6447 39.136 36.1469 39.136Z" fill="#3E2EAF"/>
<path d="M99.4379 46.7321H75.3887C74.7947 46.7321 74.3446 46.192 74.4527 45.616L78.6469 21.6388C79.4929 16.7786 73.3186 13.9525 70.2044 17.7867L61.582 28.4252C61.132 28.9832 60.448 29.3072 59.7279 29.3072H50.2235C47.3073 29.3072 44.9492 31.6653 44.9492 34.5815C44.9492 37.4976 47.3073 39.8557 50.2235 39.8557H51.5375L51.6455 39.8737C53.5716 39.9277 55.1197 41.4938 55.1197 43.4379C55.1197 45.418 53.5176 47.0201 51.5375 47.0201H25.2743C22.3581 47.0201 20 49.3782 20 52.2943C20 55.2105 22.3581 57.5686 25.2743 57.5686H38.2889C40.269 57.5686 41.8711 59.1707 41.8711 61.1508C41.8711 63.1309 40.269 64.7329 38.2889 64.7329H33.7527C30.8365 64.7329 28.4784 67.0911 28.4784 70.0072C28.4784 71.6273 29.2525 73.0314 30.4045 74.0034C30.7465 74.3094 31.1245 74.5794 31.5566 74.7774C31.6466 74.8134 31.7186 74.8494 31.7906 74.8854C32.3486 75.1195 32.9426 75.2815 33.6087 75.2815H33.7347H40.881H57.6578C58.2519 75.2815 58.7019 75.8215 58.5939 76.3975L54.3997 100.375C53.5536 105.235 59.7279 108.043 62.8421 104.209L103.146 54.5265C105.684 51.4123 103.47 46.7321 99.4379 46.7321Z" fill="#3E2EAF"/>
<path d="M36.1469 39.136C38.667 39.136 40.7011 37.1019 40.7011 34.5818C40.7011 32.0617 38.667 30.0276 36.1469 30.0276C33.6267 30.0276 31.5926 32.0617 31.5926 34.5818C31.6106 37.0839 33.6447 39.136 36.1469 39.136Z" fill="url(#paint0_linear)"/>
<path d="M57.6759 75.2815C58.2699 75.2815 58.7199 75.8215 58.6119 76.3975L54.4177 100.375C54.0037 102.769 55.2997 104.677 57.0818 105.523L69.5204 75.2815H57.6759V75.2815Z" fill="url(#paint1_linear)"/>
<path d="M99.4379 46.7315L63.0401 46.6235L76.0367 16.5261C74.2006 15.626 71.8065 15.824 70.2225 17.7861L61.582 28.4246C61.132 28.9827 60.448 29.3067 59.7279 29.3067H50.2235C47.3073 29.3067 44.9492 31.6648 44.9492 34.5809C44.9492 37.4971 47.3073 39.8552 50.2235 39.8552H51.5375L51.6455 39.8732C53.5716 39.9272 55.1197 41.4933 55.1197 43.4374C55.1197 45.4175 53.5176 47.0196 51.5375 47.0196H25.2743C22.3581 47.0196 20 49.3777 20 52.2938C20 55.21 22.3581 57.5681 25.2743 57.5681H38.2889C40.269 57.5681 41.8711 59.1701 41.8711 61.1502C41.8711 63.1303 40.269 64.7324 38.2889 64.7324H33.7527C30.8365 64.7324 28.4784 67.0905 28.4784 70.0067C28.4784 71.6268 29.2525 73.0308 30.4045 74.0029C30.7465 74.3089 31.1245 74.5789 31.5566 74.7769C31.6466 74.8129 31.7186 74.8489 31.7906 74.8849C32.3486 75.1189 32.9426 75.2809 33.6087 75.2809H33.7347H33.9147L103.758 49.4857C103.02 47.9196 101.454 46.7315 99.4379 46.7315Z" fill="url(#paint2_linear)"/>
</g>
<defs>
<filter id="filter0_d" x="0" y="0" width="124.227" height="130" filterUnits="userSpaceOnUse" color-interpolation-filters="sRGB">
<feFlood flood-opacity="0" result="BackgroundImageFix"/>
<feColorMatrix in="SourceAlpha" type="matrix" values="0 0 0 0 0 0 0 0 0 0 0 0 0 0 0 0 0 0 127 0"/>
<feOffset dy="4"/>
<feGaussianBlur stdDeviation="10"/>
<feColorMatrix type="matrix" values="0 0 0 0 0.729412 0 0 0 0 0.929412 0 0 0 0 0.870588 0 0 0 0.5 0"/>
<feBlend mode="normal" in2="BackgroundImageFix" result="effect1_dropShadow"/>
<feBlend mode="normal" in="SourceGraphic" in2="effect1_dropShadow" result="shape"/>
</filter>
<linearGradient id="paint0_linear" x1="31.6065" y1="34.5797" x2="40.7027" y2="34.5797" gradientUnits="userSpaceOnUse">
<stop stop-color="#2DCC8E"/>
<stop offset="0.1733" stop-color="#30C89B"/>
<stop offset="0.4942" stop-color="#37BDBD"/>
<stop offset="0.9245" stop-color="#43ABF5"/>
<stop offset="1" stop-color="#45A8FF"/>
</linearGradient>
<linearGradient id="paint1_linear" x1="52.7697" y1="107.433" x2="63.8908" y2="74.4061" gradientUnits="userSpaceOnUse">
<stop stop-color="#2DCC8E"/>
<stop offset="0.1733" stop-color="#30C89B"/>
<stop offset="0.4942" stop-color="#37BDBD"/>
<stop offset="0.9245" stop-color="#43ABF5"/>
<stop offset="1" stop-color="#45A8FF"/>
</linearGradient>
<linearGradient id="paint2_linear" x1="41.9132" y1="80.886" x2="85.4993" y2="13.7095" gradientUnits="userSpaceOnUse">
<stop stop-color="#2DCC8E"/>
<stop offset="0.0425" stop-color="#31C6A0"/>
<stop offset="0.1354" stop-color="#38BBC2"/>
<stop offset="0.2302" stop-color="#3EB3DD"/>
<stop offset="0.3265" stop-color="#42ADF0"/>
<stop offset="0.4255" stop-color="#44A9FB"/>
<stop offset="0.5309" stop-color="#45A8FF"/>
<stop offset="1" stop-color="#3E2EAF"/>
</linearGradient>
</defs>
</svg>
