<svg width="131" height="130" viewBox="0 0 131 130" fill="none" xmlns="http://www.w3.org/2000/svg">
<g filter="url(#filter0_d)">
<path d="M37.3003 39.136C40.0004 39.136 42.1798 37.1019 42.1798 34.5818C42.1798 32.0617 40.0004 30.0276 37.3003 30.0276C34.6002 30.0276 32.4208 32.0617 32.4208 34.5818C32.4401 37.0839 34.6195 39.136 37.3003 39.136Z" fill="#3E2EAF"/>
<path d="M105.112 46.7321H79.345C78.7085 46.7321 78.2264 46.192 78.3421 45.616L82.8359 21.6388C83.7424 16.7786 77.127 13.9525 73.7904 17.7867L64.5521 28.4252C64.07 28.9832 63.3371 29.3072 62.5656 29.3072H52.3823C49.2578 29.3072 46.7313 31.6653 46.7313 34.5815C46.7313 37.4976 49.2578 39.8557 52.3823 39.8557H53.7902L53.9059 39.8737C55.9696 39.9277 57.6282 41.4938 57.6282 43.4379C57.6282 45.418 55.9117 47.0201 53.7902 47.0201H25.651C22.5266 47.0201 20 49.3782 20 52.2943C20 55.2105 22.5266 57.5686 25.651 57.5686H39.5952C41.7168 57.5686 43.4333 59.1707 43.4333 61.1508C43.4333 63.1309 41.7168 64.7329 39.5952 64.7329H34.735C31.6106 64.7329 29.084 67.0911 29.084 70.0072C29.084 71.6273 29.9133 73.0314 31.1477 74.0034C31.5141 74.3094 31.9191 74.5794 32.382 74.7774C32.4785 74.8134 32.5556 74.8494 32.6328 74.8854C33.2306 75.1195 33.8671 75.2815 34.5807 75.2815H34.7157H42.3725H60.3477C60.9841 75.2815 61.4663 75.8215 61.3506 76.3975L56.8568 100.375C55.9503 105.235 62.5656 108.043 65.9022 104.209L109.085 54.5265C111.804 51.4123 109.432 46.7321 105.112 46.7321Z" fill="#3E2EAF"/>
<path d="M37.3003 39.136C40.0004 39.136 42.1798 37.1019 42.1798 34.5818C42.1798 32.0617 40.0004 30.0276 37.3003 30.0276C34.6002 30.0276 32.4208 32.0617 32.4208 34.5818C32.4401 37.0839 34.6195 39.136 37.3003 39.136Z" fill="url(#paint0_linear)"/>
<path d="M60.3671 75.2815C61.0035 75.2815 61.4857 75.8215 61.37 76.3975L56.8762 100.375C56.4326 102.769 57.8212 104.677 59.7306 105.523L73.0577 75.2815H60.3671Z" fill="url(#paint1_linear)"/>
<path d="M105.112 46.734L66.1144 46.626L80.0393 16.5285C78.0721 15.6285 75.507 15.8265 73.8097 17.7886L64.5522 28.4271C64.07 28.9851 63.3371 29.3091 62.5656 29.3091H52.3823C49.2578 29.3091 46.7313 31.6672 46.7313 34.5834C46.7313 37.4995 49.2578 39.8576 52.3823 39.8576H53.7902L53.9059 39.8756C55.9696 39.9296 57.6282 41.4957 57.6282 43.4398C57.6282 45.4199 55.9117 47.022 53.7902 47.022H25.651C22.5266 47.022 20 49.3801 20 52.2962C20 55.2124 22.5266 57.5705 25.651 57.5705H39.5952C41.7168 57.5705 43.4333 59.1726 43.4333 61.1527C43.4333 63.1328 41.7168 64.7349 39.5952 64.7349H34.735C31.6106 64.7349 29.084 67.093 29.084 70.0091C29.084 71.6292 29.9133 73.0333 31.1477 74.0053C31.5141 74.3113 31.9191 74.5813 32.382 74.7793C32.4785 74.8153 32.5556 74.8513 32.6328 74.8873C33.2306 75.1214 33.8671 75.2834 34.5807 75.2834H34.7157H34.9086L109.741 49.4881C108.95 47.922 107.272 46.734 105.112 46.734Z" fill="url(#paint2_linear)"/>
</g>
<defs>
<filter id="filter0_d" x="0" y="0" width="130.243" height="130" filterUnits="userSpaceOnUse" color-interpolation-filters="sRGB">
<feFlood flood-opacity="0" result="BackgroundImageFix"/>
<feColorMatrix in="SourceAlpha" type="matrix" values="0 0 0 0 0 0 0 0 0 0 0 0 0 0 0 0 0 0 127 0"/>
<feOffset dy="4"/>
<feGaussianBlur stdDeviation="10"/>
<feColorMatrix type="matrix" values="0 0 0 0 0.729412 0 0 0 0 0.929412 0 0 0 0 0.870588 0 0 0 0.5 0"/>
<feBlend mode="normal" in2="BackgroundImageFix" result="effect1_dropShadow"/>
<feBlend mode="normal" in="SourceGraphic" in2="effect1_dropShadow" result="shape"/>
</filter>
<linearGradient id="paint0_linear" x1="32.4356" y1="34.5797" x2="42.1816" y2="34.5797" gradientUnits="userSpaceOnUse">
<stop stop-color="#2DCC8E"/>
<stop offset="0.1733" stop-color="#30C89B"/>
<stop offset="0.4942" stop-color="#37BDBD"/>
<stop offset="0.9245" stop-color="#43ABF5"/>
<stop offset="1" stop-color="#45A8FF"/>
</linearGradient>
<linearGradient id="paint1_linear" x1="55.1105" y1="107.433" x2="65.6283" y2="73.9668" gradientUnits="userSpaceOnUse">
<stop stop-color="#2DCC8E"/>
<stop offset="0.1733" stop-color="#30C89B"/>
<stop offset="0.4942" stop-color="#37BDBD"/>
<stop offset="0.9245" stop-color="#43ABF5"/>
<stop offset="1" stop-color="#45A8FF"/>
</linearGradient>
<linearGradient id="paint2_linear" x1="88.6791" y1="129.613" x2="27.7146" y2="1.33541" gradientUnits="userSpaceOnUse">
<stop stop-color="#2DCC8E"/>
<stop offset="0.1354" stop-color="#38BBC2"/>
<stop offset="0.2302" stop-color="#3EB3DD"/>
<stop offset="0.3265" stop-color="#42ADF0"/>
<stop offset="0.4255" stop-color="#44A9FB"/>
<stop offset="0.5309" stop-color="#45A8FF"/>
<stop offset="1" stop-color="#3E2EAF"/>
</linearGradient>
</defs>
</svg>
