<svg width="19" height="20" viewBox="0 0 19 20" fill="none" xmlns="http://www.w3.org/2000/svg">
<path d="M17.6518 6.82893H12.3078C12.1758 6.82893 12.0758 6.70892 12.0998 6.58093L13.0318 1.253C13.2198 0.173018 11.8478 -0.45498 11.1559 0.397009L9.23988 2.76098C9.13988 2.88498 8.98788 2.95697 8.82788 2.95697H6.71591C6.06792 2.95697 5.54393 3.48098 5.54393 4.12897C5.54393 4.77696 6.06792 5.30095 6.71591 5.30095H7.00791L7.03191 5.30495C7.4599 5.31695 7.8039 5.66494 7.8039 6.09694C7.8039 6.53693 7.4479 6.89292 7.00791 6.89292H1.17198C0.523993 6.89292 0 7.41692 0 8.06491C0 8.71291 0.523993 9.2369 1.17198 9.2369H4.06395C4.50394 9.2369 4.85994 9.59289 4.85994 10.0329C4.85994 10.4729 4.50394 10.8289 4.06395 10.8289H3.05596C2.40797 10.8289 1.88398 11.3529 1.88398 12.0009C1.88398 12.3609 2.05597 12.6729 2.31197 12.8889C2.38797 12.9569 2.47197 13.0168 2.56797 13.0608C2.58797 13.0688 2.60397 13.0768 2.61997 13.0848C2.74396 13.1368 2.87596 13.1728 3.02396 13.1728H3.05196H4.63994H8.36789C8.49989 13.1728 8.59989 13.2928 8.57589 13.4208L7.6439 18.7488C7.4559 19.8288 8.82788 20.4528 9.51988 19.6048L18.4758 8.56491C19.0398 7.86892 18.5478 6.82893 17.6518 6.82893Z" fill="white"/>
</svg>
