<svg width="77" height="18" viewBox="0 0 77 18" fill="none" xmlns="http://www.w3.org/2000/svg">
<path d="M12.3798 13.0993H9.00726L3.37254 5.13317V13.0993H0V0.184019H3.37254L9.00726 8.18886V0.184019H12.3798V13.0993Z" fill="white"/>
<path d="M14.1335 2.59564V0H19.5918V13.0993H16.0844V2.59564H14.1335Z" fill="white"/>
<path d="M24.5209 12.77C23.7167 12.4649 23.0785 12.0097 22.6012 11.4092C22.1186 10.8087 21.8696 10.0872 21.8437 9.23971H25.4289C25.4808 9.71913 25.6572 10.0823 25.9633 10.3341C26.2643 10.586 26.6586 10.7119 27.1463 10.7119C27.6444 10.7119 28.0387 10.6053 28.3293 10.3874C28.6199 10.1743 28.7651 9.87409 28.7651 9.49637C28.7651 9.17676 28.651 8.91526 28.4175 8.70702C28.1892 8.49879 27.9038 8.32446 27.5718 8.19371C27.2345 8.05811 26.7624 7.90315 26.1449 7.73366C25.2525 7.477 24.5209 7.22034 23.9554 6.95884C23.3898 6.69734 22.9021 6.31961 22.4974 5.81598C22.0927 5.31235 21.8852 4.6586 21.8852 3.84988C21.8852 2.64891 22.3521 1.7046 23.2861 1.02663C24.22 0.343826 25.4341 0.00484273 26.9336 0.00484273C28.459 0.00484273 29.6835 0.343826 30.6174 1.02663C31.5514 1.70944 32.0495 2.65375 32.1169 3.86925H28.4694C28.4434 3.45279 28.2774 3.12349 27.9765 2.8862C27.6755 2.64407 27.2864 2.52785 26.8143 2.52785C26.4095 2.52785 26.0775 2.62954 25.8284 2.83293C25.5794 3.03632 25.4549 3.32688 25.4549 3.7046C25.4549 4.12107 25.6624 4.44552 26.0879 4.67797C26.5081 4.91041 27.1671 5.16223 28.0595 5.43341C28.9519 5.71429 29.6783 5.98547 30.2387 6.24213C30.799 6.49879 31.2816 6.87651 31.6863 7.36562C32.091 7.85472 32.2985 8.48911 32.2985 9.25908C32.2985 9.99516 32.0962 10.6634 31.6966 11.2639C31.2971 11.8644 30.716 12.3438 29.9533 12.6973C29.1906 13.0508 28.2878 13.23 27.2553 13.23C26.2279 13.23 25.32 13.0751 24.5209 12.77Z" fill="white"/>
<path d="M50.1418 2.83293L47.1636 13.0993H43.4383L41.7053 6.44068L39.9101 13.0993H36.2055L33.2117 2.83293H36.5842L38.1408 10.1743L39.9931 2.83293H43.5628L45.4358 10.1356L46.9716 2.83293H50.1418Z" fill="white"/>
<path d="M51.3923 5.17191C51.8177 4.37288 52.3988 3.76271 53.1356 3.33172C53.8724 2.90557 54.6922 2.68765 55.6001 2.68765C56.3732 2.68765 57.0529 2.83293 57.6392 3.12833C58.2255 3.42373 58.6769 3.81114 58.9882 4.28572V2.83293H62.3608V13.0993H58.9882V11.6465C58.6614 12.1259 58.2048 12.5133 57.6185 12.8039C57.0322 13.0993 56.3525 13.2446 55.5794 13.2446C54.687 13.2446 53.8724 13.0266 53.1356 12.5908C52.3988 12.155 51.8177 11.5351 51.3923 10.7312C50.9668 9.92736 50.7541 8.99758 50.7541 7.94189C50.7541 6.8862 50.9668 5.97094 51.3923 5.17191ZM58.293 6.11138C57.826 5.65617 57.2605 5.42857 56.5912 5.42857C55.9218 5.42857 55.3511 5.65133 54.8841 6.1017C54.4172 6.54722 54.1837 7.16707 54.1837 7.95157C54.1837 8.73608 54.4172 9.36077 54.8841 9.82082C55.3511 10.2809 55.9166 10.5085 56.5912 10.5085C57.2605 10.5085 57.8312 10.2809 58.293 9.82567C58.7548 9.37046 58.9934 8.75061 58.9934 7.9661C58.9934 7.1816 58.7599 6.56174 58.293 6.11138Z" fill="white"/>
<path d="M69.5365 3.12833C70.1124 2.83293 70.7921 2.68765 71.5652 2.68765C72.4732 2.68765 73.293 2.90073 74.0298 3.33172C74.7665 3.76271 75.3476 4.37288 75.7731 5.17191C76.1986 5.97094 76.4113 6.89588 76.4113 7.95157C76.4113 9.00727 76.1986 9.93705 75.7731 10.7409C75.3476 11.5448 74.7665 12.1646 74.0298 12.6005C73.293 13.0363 72.4732 13.2542 71.5652 13.2542C70.8025 13.2542 70.128 13.109 69.5469 12.8136C68.9606 12.5182 68.504 12.1404 68.1771 11.6707V18H64.8046V2.84262H68.1771V4.2954C68.504 3.81114 68.9606 3.42373 69.5365 3.12833ZM72.2864 6.1017C71.8194 5.65133 71.2435 5.42857 70.5638 5.42857C69.8945 5.42857 69.3238 5.65617 68.8568 6.11138C68.3898 6.56659 68.1563 7.18644 68.1563 7.97094C68.1563 8.75545 68.3898 9.3753 68.8568 9.83051C69.3238 10.2857 69.8893 10.5133 70.5638 10.5133C71.2331 10.5133 71.8039 10.2857 72.276 9.82567C72.7482 9.36562 72.9869 8.74092 72.9869 7.95642C72.9869 7.16223 72.7534 6.54722 72.2864 6.1017Z" fill="white"/>
</svg>
