<svg width="93" height="22" viewBox="0 0 93 22" fill="none" xmlns="http://www.w3.org/2000/svg">
<path d="M14.9529 15.8219H10.8794L4.07349 6.20007V15.8219H0V0.222266H4.07349L10.8794 9.89086V0.222266H14.9529V15.8219Z" fill="#2F3442"/>
<path d="M17.0711 3.13513V0H23.6639V15.8219H19.4274V3.13513H17.0711Z" fill="#2F3442"/>
<path d="M29.6174 15.4241C28.6461 15.0556 27.8752 14.5058 27.2987 13.7805C26.7159 13.0552 26.415 12.1837 26.3837 11.1601H30.7141C30.7768 11.7392 30.9899 12.1779 31.3596 12.482C31.7231 12.7862 32.1994 12.9383 32.7885 12.9383C33.3901 12.9383 33.8664 12.8096 34.2174 12.5464C34.5683 12.289 34.7438 11.9264 34.7438 11.4701C34.7438 11.0841 34.6059 10.7682 34.3239 10.5167C34.0481 10.2652 33.7035 10.0546 33.3024 9.89671C32.895 9.73294 32.3247 9.54577 31.579 9.34105C30.5011 9.03104 29.6174 8.72104 28.9343 8.40519C28.2512 8.08933 27.6622 7.6331 27.1733 7.0248C26.6845 6.41649 26.4338 5.62685 26.4338 4.65005C26.4338 3.19947 26.9979 2.05889 28.1259 1.24001C29.254 0.415288 30.7204 0.00584926 32.5316 0.00584926C34.374 0.00584926 35.853 0.415288 36.9811 1.24001C38.1091 2.06474 38.7107 3.20532 38.7922 4.67345H34.3866C34.3552 4.17042 34.1547 3.77268 33.7912 3.48608C33.4277 3.19362 32.9577 3.05324 32.3874 3.05324C31.8986 3.05324 31.4975 3.17607 31.1967 3.42174C30.8959 3.6674 30.7455 4.01835 30.7455 4.47458C30.7455 4.9776 30.9962 5.36949 31.51 5.65025C32.0177 5.93101 32.8136 6.23516 33.8915 6.56271C34.9694 6.90196 35.8467 7.22951 36.5236 7.53952C37.2004 7.84952 37.7832 8.30575 38.272 8.89651C38.7609 9.48727 39.0115 10.2535 39.0115 11.1835C39.0115 12.0726 38.7671 12.8798 38.2846 13.6051C37.802 14.3303 37.1001 14.9094 36.1789 15.3364C35.2577 15.7634 34.1672 15.9798 32.9201 15.9798C31.6793 15.9798 30.5825 15.7926 29.6174 15.4241Z" fill="#2F3442"/>
<path d="M60.5635 3.42174L56.9662 15.8219H52.4666L50.3735 7.77933L48.2051 15.8219H43.7305L40.1145 3.42174H44.188L46.0681 12.289L48.3054 3.42174H52.617L54.8794 12.2422L56.7344 3.42174H60.5635Z" fill="#2F3442"/>
<path d="M62.0738 6.24686C62.5877 5.28176 63.2896 4.54477 64.1795 4.0242C65.0694 3.50947 66.0596 3.24626 67.1563 3.24626C68.09 3.24626 68.911 3.42174 69.6191 3.77853C70.3273 4.13533 70.8725 4.60326 71.2486 5.17647V3.42174H75.3221V15.8219H71.2486V14.0671C70.8537 14.6462 70.3023 15.1141 69.5941 15.4651C68.8859 15.8219 68.065 15.9973 67.1312 15.9973C66.0533 15.9973 65.0694 15.7341 64.1795 15.2077C63.2896 14.6813 62.5877 13.9326 62.0738 12.9617C61.5599 11.9907 61.303 10.8677 61.303 9.59256C61.303 8.31745 61.5599 7.21197 62.0738 6.24686ZM70.4088 7.38159C69.8448 6.83177 69.1617 6.55686 68.3532 6.55686C67.5448 6.55686 66.8554 6.82592 66.2914 7.36989C65.7274 7.90801 65.4454 8.6567 65.4454 9.60426C65.4454 10.5518 65.7274 11.3063 66.2914 11.862C66.8554 12.4177 67.5385 12.6926 68.3532 12.6926C69.1617 12.6926 69.851 12.4177 70.4088 11.8679C70.9665 11.318 71.2548 10.5694 71.2548 9.6218C71.2548 8.67425 70.9728 7.92556 70.4088 7.38159Z" fill="#2F3442"/>
<path d="M83.9892 3.77853C84.6848 3.42174 85.5058 3.24626 86.4396 3.24626C87.5363 3.24626 88.5264 3.50362 89.4163 4.0242C90.3062 4.54477 91.0081 5.28176 91.522 6.24686C92.0359 7.21197 92.2929 8.32915 92.2929 9.60426C92.2929 10.8794 92.0359 12.0024 91.522 12.9734C91.0081 13.9443 90.3062 14.693 89.4163 15.2194C88.5264 15.7458 87.5363 16.009 86.4396 16.009C85.5183 16.009 84.7036 15.8336 84.0017 15.4768C83.2936 15.12 82.7421 14.6637 82.3473 14.0964V21.7412H78.2738V3.43343H82.3473V5.18817C82.7421 4.60326 83.2936 4.13533 83.9892 3.77853ZM87.3107 7.36989C86.7466 6.82592 86.051 6.55686 85.23 6.55686C84.4216 6.55686 83.7323 6.83177 83.1682 7.38159C82.6042 7.93141 82.3222 8.68009 82.3222 9.62765C82.3222 10.5752 82.6042 11.3239 83.1682 11.8737C83.7323 12.4235 84.4153 12.6984 85.23 12.6984C86.0385 12.6984 86.7278 12.4235 87.2981 11.8679C87.8684 11.3122 88.1567 10.5577 88.1567 9.61011C88.1567 8.65085 87.8747 7.90801 87.3107 7.36989Z" fill="#2F3442"/>
</svg>
