<svg width="20" height="20" viewBox="0 0 20 20" fill="none" xmlns="http://www.w3.org/2000/svg">
<path d="M18.3333 1.66667V0H16.6667H15H13.3333H11.6667H10H8.33333H6.66667H5H3.33333H1.66667V1.66667H0V3.33333V5H1.66667H3.33333H5H6.66667H8.33333H16.6667H17.9667H18.3333H20V3.33333V1.66667H18.3333Z" fill="#4CACF8"/>
<path d="M18.3333 5H16.6667H6.66667H5H3.33333H1.66667H0V6.66667V8.33333H1.66667H3.33333H5H6.66667H13.3333H15H16.6667H18.3333H20V6.66667V5H18.3333Z" fill="#419AF0"/>
<path d="M19.1667 8.33325H18.3333H16.6667H15H13.3333H8.33333H6.66667H5H3.33333H1.66667H0V9.99992V11.6666V13.3333H1.66667H3.33333H16.6667H18.3333H19.1667H20V11.6666V9.99992V8.33325H19.1667Z" fill="#2E7CE2"/>
<path d="M18.3333 13.3333H17.5H16.6667H15H13.3333H6.66667H5H3.33333H1.66667H0V14.9999V16.6666H1.66667H3.33333H5H6.66667H13.3333H15H16.6667H17.5H18.3333H20V14.9999V13.3333H18.3333Z" fill="#236ADB"/>
<path d="M18.3333 16.6667H16.6667H15H14.1667H13.3333H6.66667H5H3.33333H1.66667H0V18.3334H1.66667V20.0001H3.33333H5H6.66667H13.3333H14.1667H15H16.6667H18.3333V18.3334H20V16.6667H18.3333Z" fill="#1F64D8"/>
<path d="M15 3.33325H13.3333H11.6667H10V4.99992H8.33333V6.66659V8.33325V9.99992H6.66667H5V11.6666V13.3333H6.66667H8.33333V14.9999V16.6666V18.3333V19.9999H10H11.6667H13.3333V18.3333V16.6666V14.9999V13.3333H15H16.6667V11.6666V9.99992H15H13.3333V8.33325V6.66659H15H16.6667V4.99992V3.33325H15Z" fill="white"/>
</svg>
